<?xml version="1.0" encoding="utf-8"?>
<!-- Generator: Adobe Illustrator 18.0.0, SVG Export Plug-In . SVG Version: 6.00 Build 0)  -->
<!DOCTYPE svg PUBLIC "-//W3C//DTD SVG 1.1//EN" "http://www.w3.org/Graphics/SVG/1.1/DTD/svg11.dtd">
<svg version="1.1" id="Layer_1" xmlns="http://www.w3.org/2000/svg" xmlns:xlink="http://www.w3.org/1999/xlink" x="0px" y="0px"
	 viewBox="0 0 350 50" enable-background="new 0 0 350 50" xml:space="preserve">
<g>
	<g>
		<g>
			<path fill="#CF2528" d="M29,34c-2.7,2.6-6.8,2.6-9.6,0.1c-0.1-0.1-0.1-0.2-0.2-0.3s-0.2-0.2-0.3-0.2c-2.6-2.8-2.4-7,0.1-9.7
				L29,34z"/>
			<path fill="#CF2528" d="M19.4,34.1c-0.1-0.1-0.2-0.2-0.3-0.3c-0.1-0.1-0.1-0.1-0.2-0.2c0.1,0.1,0.2,0.1,0.3,0.2
				C19.3,34,19.3,34,19.4,34.1z"/>
			<path fill="#CF2528" d="M50.9,24.9C50.9,38.2,40.1,49,26.8,49c-5.8,0-11.1-2-15.3-5.5l6.7-6.7c1.7,1.3,3.8,1.9,5.8,1.9
				c2.6,0,5-0.9,6.9-2.9l11.4-11.4c0.5-0.5,0.5-1.4,0-1.9s-1.4-0.5-1.9,0l-9.6,9.6l-2-2l9.5-9.5c0.5-0.5,0.5-1.4,0-1.9
				s-1.4-0.5-1.9,0l-9.5,9.5l-2-2l9.7-9.7c0.5-0.5,0.5-1.4,0-1.9c-0.5-0.5-1.4-0.5-1.9,0L23,24.1l-2-2l9.6-9.6
				c0.5-0.5,0.5-1.4,0-1.9c-0.5-0.5-1.4-0.5-1.9,0L17.1,22c-1.8,1.8-2.9,4.3-2.9,6.9c0,2.1,0.7,4.3,2,5.9l-10.1,10
				c-0.3,0.3-0.6,0.4-0.9,0.4s-0.7-0.1-0.9-0.4c-0.5-0.5-0.5-1.4,0-1.9l3.5-3.5C4.8,35.4,3,30.4,3,24.8c-0.2-13.2,10.6-24,23.9-24
				S50.9,11.7,50.9,24.9z"/>
		</g>
		<g>
			<path fill="#CF2528" d="M19.4,34.1c-0.1-0.1-0.2-0.2-0.3-0.3c-0.1-0.1-0.1-0.1-0.2-0.2c0.1,0.1,0.2,0.1,0.3,0.2
				C19.3,34,19.3,34,19.4,34.1z"/>
		</g>
		<g>
			<path fill="#CF2528" d="M2.6,47c0.7,1.3-0.6,2.7-1.9,1.9c-0.2-0.1-0.3-0.2-0.4-0.4c-0.7-1.3,0.6-2.7,1.9-1.9
				C2.2,46.7,2.4,46.9,2.6,47z"/>
		</g>
	</g>
	<g>
		<path fill="#CF2528" d="M63.4,15.2h5.2v2.7c1.4-1.7,3.8-3.2,6.2-3.2v5c-0.4-0.1-0.8-0.2-1.4-0.2c-1.7,0-4,1-4.8,2.2v13h-5.2V15.2z
			"/>
		<path fill="#CF2528" d="M85.1,14.6c5.8,0,9.8,4.4,9.8,10.8v1.1H80.4c0.3,2.4,2.3,4.6,5.6,4.6c1.8,0,4-0.7,5.2-1.9l2.2,3.4
			c-1.9,1.8-5,2.8-8.1,2.8c-6,0-10.5-4-10.5-10.3C75,19.2,79.2,14.6,85.1,14.6z M80.3,23.1H90c-0.1-1.8-1.4-4.4-4.8-4.4
			C81.9,18.7,80.5,21.2,80.3,23.1z"/>
		<path fill="#CF2528" d="M97.2,28.6c1.4,1.3,4.4,2.7,6.7,2.7c2.2,0,3.3-0.8,3.3-2c0-1.4-1.7-1.8-4-2.3c-3.4-0.6-7.8-1.4-7.8-6.1
			c0-3.3,2.9-6.2,8.1-6.2c3.4,0,6,1.1,8,2.7l-2,3.6c-1.2-1.2-3.4-2.2-5.8-2.2c-1.8,0-3.1,0.7-3.1,1.8c0,1.2,1.5,1.6,3.8,2.1
			c3.4,0.6,7.9,1.5,7.9,6.4c0,3.6-3.1,6.3-8.5,6.3c-3.4,0-6.7-1.1-8.8-3.1L97.2,28.6z M97.6,6.3h3.2l3,3.7l2.9-3.7h3.2l-3.7,5.8
			h-4.6L97.6,6.3z"/>
		<path fill="#CF2528" d="M115.8,29.8V19.6h-3.3v-4.5h3.3V9.7h5.2v5.4h4v4.5h-4v8.9c0,1.2,0.6,2.1,1.8,2.1c0.8,0,1.5-0.3,1.8-0.6
			l1.1,3.9c-0.8,0.7-2.1,1.2-4.3,1.2C117.8,35.3,115.8,33.4,115.8,29.8z"/>
		<path fill="#CF2528" d="M138.8,32.7c-1.3,1.6-3.7,2.6-6.2,2.6c-3.2,0-6.8-2.1-6.8-6.5c0-4.6,3.7-6.2,6.8-6.2
			c2.6,0,4.9,0.8,6.2,2.3v-2.8c0-2-1.7-3.3-4.3-3.3c-2.1,0-4.1,0.8-5.7,2.3l-1.9-3.5c2.3-2.1,5.5-3.1,8.6-3.1c4.5,0,8.6,1.8,8.6,7.4
			v12.7h-5.2V32.7z M138.8,27.6c-0.8-1.1-2.4-1.7-4.2-1.7c-2,0-3.7,1-3.7,3c0,1.8,1.6,2.9,3.7,2.9c1.6,0,3.3-0.6,4.2-1.7V27.6z"/>
		<path fill="#CF2528" d="M159.3,32.3c-1.3,1.5-3.7,3-6.9,3c-4.3,0-6.3-2.3-6.3-6.2V15.2h5.2v11.9c0,2.8,1.4,3.6,3.6,3.6
			c2,0,3.6-1.1,4.5-2.2V15.2h5.2v19.6h-5.2V32.3z"/>
		<path fill="#CF2528" d="M166.8,15.2h5.2v2.7c1.4-1.7,3.8-3.2,6.2-3.2v5c-0.4-0.1-0.8-0.2-1.4-0.2c-1.7,0-4,1-4.8,2.2v13h-5.2
			L166.8,15.2L166.8,15.2z"/>
		<path fill="#CF2528" d="M191.2,32.7c-1.3,1.6-3.7,2.6-6.2,2.6c-3.2,0-6.8-2.1-6.8-6.5c0-4.6,3.7-6.2,6.8-6.2
			c2.6,0,4.9,0.8,6.2,2.3v-2.8c0-2-1.7-3.3-4.3-3.3c-2.1,0-4.1,0.8-5.7,2.3l-1.9-3.5c2.3-2.1,5.5-3.1,8.6-3.1c4.5,0,8.6,1.8,8.6,7.4
			v12.7h-5.2L191.2,32.7L191.2,32.7z M191.2,27.6c-0.8-1.1-2.4-1.7-4.2-1.7c-2,0-3.7,1-3.7,3c0,1.8,1.6,2.9,3.7,2.9
			c1.6,0,3.3-0.6,4.2-1.7V27.6z M185.9,12.2l5.4-5.8h4.8l-6.6,5.8H185.9z"/>
		<path fill="#CF2528" d="M208.4,14.6c4,0,6.4,1.7,7.8,3.6l-3.4,3.2c-0.9-1.4-2.3-2.1-4.2-2.1c-3.2,0-5.3,2.2-5.3,5.7
			c0,3.4,2.2,5.7,5.3,5.7c1.8,0,3.2-0.8,4.2-2.1l3.4,3.2c-1.3,1.8-3.8,3.6-7.8,3.6c-6,0-10.4-4.3-10.4-10.3S202.2,14.6,208.4,14.6z"
			/>
		<path fill="#CF2528" d="M217,9.5c0-1.7,1.4-3.1,3.1-3.1c1.7,0,3.1,1.4,3.1,3.1s-1.4,3.1-3.1,3.1C218.5,12.6,217,11.3,217,9.5z
			 M217.7,15.2h5.2v19.6h-5.2V15.2z"/>
		<path fill="#CF2528" d="M234.5,14.6c5.8,0,9.8,4.4,9.8,10.8v1.1h-14.6c0.3,2.4,2.3,4.6,5.6,4.6c1.8,0,4-0.7,5.2-1.9l2.2,3.4
			c-1.9,1.8-5,2.8-8.1,2.8c-6,0-10.5-4-10.5-10.3C224.4,19.2,228.6,14.6,234.5,14.6z M229.7,23.1h9.7c-0.1-1.8-1.4-4.4-4.8-4.4
			C231.3,18.7,229.9,21.2,229.7,23.1z"/>
		<g>
			<path fill="#A5A5A5" d="M246.1,31.6c1,0,1.8,0.8,1.8,1.7c0,1-0.8,1.8-1.8,1.8c-1,0-1.8-0.8-1.8-1.8
				C244.3,32.4,245.1,31.6,246.1,31.6z"/>
			<path fill="#A5A5A5" d="M250.3,30.6c1.2,1.6,3.6,2.9,6.3,2.9c3.3,0,5.3-1.6,5.3-3.9c0-2.6-2.7-3.3-5.5-4
				c-3.3-0.8-6.9-1.6-6.9-5.5c0-3.1,2.6-5.5,7-5.5c3.4,0,5.6,1.3,7,2.9l-1.2,1.5c-1.1-1.5-3.3-2.7-5.9-2.7c-3.1,0-4.9,1.5-4.9,3.6
				c0,2.2,2.6,2.9,5.3,3.6c3.4,0.8,7.1,1.8,7.1,6c0,3.2-2.4,5.8-7.3,5.8c-3.2,0-5.6-0.9-7.6-3.1L250.3,30.6z"/>
			<path fill="#A5A5A5" d="M289.5,21c0-2.8-1.2-4.5-4-4.5c-2.1,0-4.5,1.5-5.6,3.4v14.9h-2.1V21c0-2.8-1.1-4.5-4-4.5
				c-2,0-4.5,1.6-5.6,3.4v14.9H266V15.1h2.1v3c0.8-1.2,3.5-3.5,6.3-3.5c3.1,0,4.7,1.8,5.2,3.7c1.1-1.8,3.8-3.7,6.5-3.7
				c3.7,0,5.4,2,5.4,6v14.2h-2.1V21z"/>
			<path fill="#A5A5A5" d="M302.8,14.5c6,0,9.3,4.8,9.3,10.4v0.6h-16.5c0.2,4.3,3.1,7.9,7.8,7.9c2.4,0,4.8-0.9,6.4-2.8l1.1,1.4
				c-1.9,2-4.5,3.2-7.8,3.2c-5.7,0-9.9-4.3-9.9-10.4C293.3,19.1,297.3,14.5,302.8,14.5z M295.6,23.9h14.3c0-3.4-2.2-7.6-7.1-7.6
				C298.1,16.4,295.8,20.5,295.6,23.9z"/>
			<path fill="#A5A5A5" d="M313.9,31.6c1,0,1.8,0.8,1.8,1.7c0,1-0.8,1.8-1.8,1.8c-1,0-1.8-0.8-1.8-1.8
				C312,32.4,312.9,31.6,313.9,31.6z"/>
			<path fill="#A5A5A5" d="M318.1,30.6c1.2,1.6,3.6,2.9,6.3,2.9c3.3,0,5.3-1.6,5.3-3.9c0-2.6-2.7-3.3-5.5-4
				c-3.3-0.8-6.9-1.6-6.9-5.5c0-3.1,2.6-5.5,7-5.5c3.4,0,5.6,1.3,7,2.9l-1.2,1.5c-1.1-1.5-3.3-2.7-5.9-2.7c-3.1,0-4.9,1.5-4.9,3.6
				c0,2.2,2.6,2.9,5.3,3.6c3.4,0.8,7.1,1.8,7.1,6c0,3.2-2.4,5.8-7.3,5.8c-3.2,0-5.6-0.9-7.6-3.1L318.1,30.6z"/>
			<path fill="#A5A5A5" d="M339.3,25.4l-3.7,3.5v5.9h-2.1V7.5h2.1v18.8l11.6-11.2h2.9l-9.2,8.9l9.2,10.8h-2.9L339.3,25.4z"/>
		</g>
	</g>
</g>
</svg>
